<mxfile host="65bd71144e">
    <diagram id="DMZYOBVA78_Y3MsjhRZm" name="Page-1">
        <mxGraphModel dx="2820" dy="1767" grid="1" gridSize="10" guides="1" tooltips="1" connect="1" arrows="1" fold="1" page="1" pageScale="1" pageWidth="1100" pageHeight="850" math="0" shadow="0">
            <root>
                <mxCell id="0"/>
                <mxCell id="1" parent="0"/>
                <mxCell id="6" value="" style="edgeStyle=orthogonalEdgeStyle;orthogonalLoop=1;jettySize=auto;html=1;strokeWidth=4;startArrow=none;startFill=0;endArrow=none;endFill=0;curved=1;strokeColor=#6c8ebf;gradientColor=#7ea6e0;fillColor=#dae8fc;fontColor=#0A1200;" parent="1" source="2" target="5" edge="1">
                    <mxGeometry relative="1" as="geometry"/>
                </mxCell>
                <mxCell id="2" value="User Account" style="rounded=0;whiteSpace=wrap;html=1;strokeColor=#6c8ebf;gradientColor=#7ea6e0;fillColor=#dae8fc;fontColor=#0A1200;" parent="1" vertex="1">
                    <mxGeometry x="50" y="60" width="120" height="60" as="geometry"/>
                </mxCell>
                <mxCell id="8" value="" style="edgeStyle=orthogonalEdgeStyle;orthogonalLoop=1;jettySize=auto;html=1;strokeWidth=4;endArrow=none;endFill=0;curved=1;strokeColor=#6c8ebf;gradientColor=#7ea6e0;fillColor=#dae8fc;fontColor=#0A1200;" parent="1" source="3" target="2" edge="1">
                    <mxGeometry relative="1" as="geometry"/>
                </mxCell>
                <mxCell id="3" value="&lt;u&gt;email&lt;/u&gt;" style="ellipse;whiteSpace=wrap;html=1;strokeColor=#6c8ebf;gradientColor=#7ea6e0;fillColor=#dae8fc;fontColor=#0A1200;" parent="1" vertex="1">
                    <mxGeometry x="-90" y="10" width="90" height="40" as="geometry"/>
                </mxCell>
                <mxCell id="7" value="" style="edgeStyle=orthogonalEdgeStyle;orthogonalLoop=1;jettySize=auto;html=1;strokeWidth=3;endArrow=none;endFill=0;curved=1;strokeColor=#6c8ebf;gradientColor=#7ea6e0;fillColor=#dae8fc;fontColor=#0A1200;" parent="1" source="4" target="2" edge="1">
                    <mxGeometry relative="1" as="geometry"/>
                </mxCell>
                <mxCell id="4" value="&lt;u&gt;&lt;b&gt;id&lt;/b&gt;&lt;/u&gt;" style="ellipse;whiteSpace=wrap;html=1;strokeColor=#6c8ebf;gradientColor=#7ea6e0;fillColor=#dae8fc;fontColor=#0A1200;" parent="1" vertex="1">
                    <mxGeometry x="-130" y="70" width="90" height="40" as="geometry"/>
                </mxCell>
                <mxCell id="5" value="password" style="ellipse;whiteSpace=wrap;html=1;strokeColor=#6c8ebf;gradientColor=#7ea6e0;fillColor=#dae8fc;fontColor=#0A1200;" parent="1" vertex="1">
                    <mxGeometry x="-90" y="120" width="90" height="40" as="geometry"/>
                </mxCell>
                <mxCell id="59" value="" style="edgeStyle=orthogonalEdgeStyle;curved=1;orthogonalLoop=1;jettySize=auto;html=1;startArrow=none;startFill=0;endArrow=none;endFill=0;strokeWidth=3;strokeColor=#6c8ebf;gradientColor=#7ea6e0;fillColor=#dae8fc;fontColor=#0A1200;" parent="1" source="9" target="57" edge="1">
                    <mxGeometry relative="1" as="geometry"/>
                </mxCell>
                <mxCell id="9" value="Worker" style="whiteSpace=wrap;html=1;strokeColor=#6c8ebf;gradientColor=#7ea6e0;fillColor=#dae8fc;fontColor=#0A1200;" parent="1" vertex="1">
                    <mxGeometry x="620" y="-50" width="120" height="60" as="geometry"/>
                </mxCell>
                <mxCell id="15" value="" style="edgeStyle=orthogonalEdgeStyle;orthogonalLoop=1;jettySize=auto;html=1;startArrow=none;startFill=0;endArrow=none;endFill=0;strokeWidth=3;curved=1;strokeColor=#6c8ebf;gradientColor=#7ea6e0;fillColor=#dae8fc;fontColor=#0A1200;" parent="1" source="12" target="9" edge="1">
                    <mxGeometry relative="1" as="geometry"/>
                </mxCell>
                <mxCell id="12" value="skills" style="ellipse;whiteSpace=wrap;html=1;strokeColor=#6c8ebf;gradientColor=#7ea6e0;fillColor=#dae8fc;fontColor=#0A1200;" parent="1" vertex="1">
                    <mxGeometry x="820" y="-90" width="90" height="40" as="geometry"/>
                </mxCell>
                <mxCell id="17" value="" style="edgeStyle=orthogonalEdgeStyle;orthogonalLoop=1;jettySize=auto;html=1;startArrow=none;startFill=0;endArrow=none;endFill=0;strokeWidth=3;curved=1;strokeColor=#6c8ebf;gradientColor=#7ea6e0;fillColor=#dae8fc;fontColor=#0A1200;" parent="1" source="13" target="9" edge="1">
                    <mxGeometry relative="1" as="geometry"/>
                </mxCell>
                <mxCell id="13" value="ratings" style="ellipse;whiteSpace=wrap;html=1;strokeColor=#6c8ebf;gradientColor=#7ea6e0;fillColor=#dae8fc;fontColor=#0A1200;" parent="1" vertex="1">
                    <mxGeometry x="820" y="10" width="90" height="40" as="geometry"/>
                </mxCell>
                <mxCell id="16" value="" style="edgeStyle=orthogonalEdgeStyle;orthogonalLoop=1;jettySize=auto;html=1;startArrow=none;startFill=0;endArrow=none;endFill=0;strokeWidth=3;curved=1;strokeColor=#6c8ebf;gradientColor=#7ea6e0;fillColor=#dae8fc;fontColor=#0A1200;" parent="1" source="14" target="9" edge="1">
                    <mxGeometry relative="1" as="geometry"/>
                </mxCell>
                <mxCell id="14" value="name" style="ellipse;whiteSpace=wrap;html=1;strokeColor=#6c8ebf;gradientColor=#7ea6e0;fillColor=#dae8fc;fontColor=#0A1200;" parent="1" vertex="1">
                    <mxGeometry x="820" y="-40" width="90" height="40" as="geometry"/>
                </mxCell>
                <mxCell id="18" value="Project" style="whiteSpace=wrap;html=1;strokeColor=#6c8ebf;gradientColor=#7ea6e0;fillColor=#dae8fc;fontColor=#0A1200;" parent="1" vertex="1">
                    <mxGeometry x="620" y="180" width="120" height="60" as="geometry"/>
                </mxCell>
                <mxCell id="19" value="" style="edgeStyle=orthogonalEdgeStyle;orthogonalLoop=1;jettySize=auto;html=1;startArrow=none;startFill=0;endArrow=none;endFill=0;strokeWidth=3;curved=1;strokeColor=#6c8ebf;gradientColor=#7ea6e0;fillColor=#dae8fc;fontColor=#0A1200;" parent="1" source="20" target="18" edge="1">
                    <mxGeometry relative="1" as="geometry"/>
                </mxCell>
                <mxCell id="20" value="project_name" style="ellipse;whiteSpace=wrap;html=1;strokeColor=#6c8ebf;gradientColor=#7ea6e0;fillColor=#dae8fc;fontColor=#0A1200;" parent="1" vertex="1">
                    <mxGeometry x="810" y="140" width="90" height="40" as="geometry"/>
                </mxCell>
                <mxCell id="21" value="" style="edgeStyle=orthogonalEdgeStyle;orthogonalLoop=1;jettySize=auto;html=1;startArrow=none;startFill=0;endArrow=none;endFill=0;strokeWidth=3;curved=1;strokeColor=#6c8ebf;gradientColor=#7ea6e0;fillColor=#dae8fc;fontColor=#0A1200;" parent="1" source="22" target="18" edge="1">
                    <mxGeometry relative="1" as="geometry"/>
                </mxCell>
                <mxCell id="22" value="ratings" style="ellipse;whiteSpace=wrap;html=1;strokeColor=#6c8ebf;gradientColor=#7ea6e0;fillColor=#dae8fc;fontColor=#0A1200;" parent="1" vertex="1">
                    <mxGeometry x="810" y="240" width="90" height="40" as="geometry"/>
                </mxCell>
                <mxCell id="23" value="" style="edgeStyle=orthogonalEdgeStyle;rounded=0;orthogonalLoop=1;jettySize=auto;html=1;startArrow=none;startFill=0;endArrow=none;endFill=0;strokeWidth=3;strokeColor=#6c8ebf;gradientColor=#7ea6e0;fillColor=#dae8fc;fontColor=#0A1200;" parent="1" source="24" target="18" edge="1">
                    <mxGeometry relative="1" as="geometry"/>
                </mxCell>
                <mxCell id="24" value="name" style="ellipse;whiteSpace=wrap;html=1;strokeColor=#6c8ebf;gradientColor=#7ea6e0;fillColor=#dae8fc;fontColor=#0A1200;" parent="1" vertex="1">
                    <mxGeometry x="810" y="190" width="90" height="40" as="geometry"/>
                </mxCell>
                <mxCell id="31" value="" style="edgeStyle=orthogonalEdgeStyle;orthogonalLoop=1;jettySize=auto;html=1;startArrow=none;startFill=0;endArrow=none;endFill=0;strokeWidth=3;curved=1;strokeColor=#6c8ebf;gradientColor=#7ea6e0;fillColor=#dae8fc;fontColor=#0A1200;" parent="1" source="26" target="18" edge="1">
                    <mxGeometry relative="1" as="geometry"/>
                </mxCell>
                <mxCell id="26" value="&lt;span style=&quot;font-family: helvetica; font-size: 12px; font-style: normal; font-weight: 400; letter-spacing: normal; text-align: center; text-indent: 0px; text-transform: none; word-spacing: 0px; display: inline; float: none;&quot;&gt;reviews&lt;/span&gt;" style="ellipse;whiteSpace=wrap;html=1;strokeColor=#6c8ebf;gradientColor=#7ea6e0;fillColor=#dae8fc;fontColor=#0A1200;labelBackgroundColor=none;" parent="1" vertex="1">
                    <mxGeometry x="900" y="220" width="90" height="40" as="geometry"/>
                </mxCell>
                <mxCell id="35" value="" style="edgeStyle=orthogonalEdgeStyle;orthogonalLoop=1;jettySize=auto;html=1;startArrow=none;startFill=0;endArrow=none;endFill=0;strokeWidth=3;curved=1;strokeColor=#6c8ebf;gradientColor=#7ea6e0;fillColor=#dae8fc;fontColor=#0A1200;" parent="1" source="32" target="9" edge="1">
                    <mxGeometry relative="1" as="geometry"/>
                </mxCell>
                <mxCell id="32" value="&lt;span style=&quot;font-family: &amp;#34;helvetica&amp;#34; ; font-size: 12px ; font-style: normal ; font-weight: 400 ; letter-spacing: normal ; text-align: center ; text-indent: 0px ; text-transform: none ; word-spacing: 0px ; display: inline ; float: none&quot;&gt;reviews&lt;/span&gt;" style="ellipse;whiteSpace=wrap;html=1;strokeColor=#6c8ebf;gradientColor=#7ea6e0;fillColor=#dae8fc;fontColor=#0A1200;" parent="1" vertex="1">
                    <mxGeometry x="920" y="-10" width="90" height="40" as="geometry"/>
                </mxCell>
                <mxCell id="51" value="" style="edgeStyle=orthogonalEdgeStyle;curved=1;orthogonalLoop=1;jettySize=auto;html=1;startArrow=none;startFill=0;endArrow=none;endFill=0;strokeWidth=3;strokeColor=#6c8ebf;gradientColor=#7ea6e0;fillColor=#dae8fc;fontColor=#0A1200;" parent="1" source="36" target="49" edge="1">
                    <mxGeometry relative="1" as="geometry"/>
                </mxCell>
                <mxCell id="58" value="" style="edgeStyle=orthogonalEdgeStyle;curved=1;orthogonalLoop=1;jettySize=auto;html=1;startArrow=none;startFill=0;endArrow=none;endFill=0;strokeWidth=1;strokeColor=#6c8ebf;gradientColor=#7ea6e0;fillColor=#dae8fc;fontColor=#0A1200;" parent="1" source="36" target="57" edge="1">
                    <mxGeometry relative="1" as="geometry"/>
                </mxCell>
                <mxCell id="36" value="Skill" style="whiteSpace=wrap;html=1;strokeColor=#6c8ebf;gradientColor=#7ea6e0;fillColor=#dae8fc;fontColor=#0A1200;" parent="1" vertex="1">
                    <mxGeometry x="620" y="-270" width="120" height="60" as="geometry"/>
                </mxCell>
                <mxCell id="52" value="" style="edgeStyle=orthogonalEdgeStyle;curved=1;orthogonalLoop=1;jettySize=auto;html=1;startArrow=none;startFill=0;endArrow=none;endFill=0;strokeWidth=3;strokeColor=#6c8ebf;gradientColor=#7ea6e0;fillColor=#dae8fc;fontColor=#0A1200;" parent="1" source="47" target="36" edge="1">
                    <mxGeometry relative="1" as="geometry"/>
                </mxCell>
                <mxCell id="47" value="&lt;u&gt;&lt;b&gt;id&lt;/b&gt;&lt;/u&gt;" style="ellipse;whiteSpace=wrap;html=1;strokeColor=#6c8ebf;gradientColor=#7ea6e0;fillColor=#dae8fc;fontColor=#0A1200;" parent="1" vertex="1">
                    <mxGeometry x="820" y="-310" width="90" height="40" as="geometry"/>
                </mxCell>
                <mxCell id="53" value="" style="edgeStyle=orthogonalEdgeStyle;curved=1;orthogonalLoop=1;jettySize=auto;html=1;startArrow=none;startFill=0;endArrow=none;endFill=0;strokeWidth=3;strokeColor=#6c8ebf;gradientColor=#7ea6e0;fillColor=#dae8fc;fontColor=#0A1200;" parent="1" source="48" target="36" edge="1">
                    <mxGeometry relative="1" as="geometry"/>
                </mxCell>
                <mxCell id="48" value="rate_reco&lt;br&gt;mmendation" style="ellipse;whiteSpace=wrap;html=1;strokeColor=#6c8ebf;gradientColor=#7ea6e0;fillColor=#dae8fc;fontColor=#0A1200;" parent="1" vertex="1">
                    <mxGeometry x="820" y="-210" width="90" height="40" as="geometry"/>
                </mxCell>
                <mxCell id="49" value="name" style="ellipse;whiteSpace=wrap;html=1;strokeColor=#6c8ebf;gradientColor=#7ea6e0;fillColor=#dae8fc;fontColor=#0A1200;" parent="1" vertex="1">
                    <mxGeometry x="820" y="-260" width="90" height="40" as="geometry"/>
                </mxCell>
                <mxCell id="56" value="" style="edgeStyle=orthogonalEdgeStyle;curved=1;orthogonalLoop=1;jettySize=auto;html=1;startArrow=none;startFill=0;endArrow=none;endFill=0;strokeWidth=3;strokeColor=#6c8ebf;gradientColor=#7ea6e0;fillColor=#dae8fc;fontColor=#0A1200;" parent="1" source="55" target="9" edge="1">
                    <mxGeometry relative="1" as="geometry"/>
                </mxCell>
                <mxCell id="55" value="&lt;u&gt;&lt;b&gt;id&lt;/b&gt;&lt;/u&gt;" style="ellipse;whiteSpace=wrap;html=1;strokeColor=#6c8ebf;gradientColor=#7ea6e0;fillColor=#dae8fc;fontColor=#0A1200;" parent="1" vertex="1">
                    <mxGeometry x="920" y="-70" width="90" height="40" as="geometry"/>
                </mxCell>
                <mxCell id="57" value="has a" style="rhombus;whiteSpace=wrap;html=1;strokeColor=#6c8ebf;gradientColor=#7ea6e0;fillColor=#dae8fc;fontColor=#0A1200;" parent="1" vertex="1">
                    <mxGeometry x="640" y="-160" width="80" height="50" as="geometry"/>
                </mxCell>
                <mxCell id="65" value="" style="edgeStyle=orthogonalEdgeStyle;curved=1;orthogonalLoop=1;jettySize=auto;html=1;startArrow=classic;startFill=1;endArrow=none;endFill=0;strokeWidth=3;strokeColor=#6c8ebf;gradientColor=#7ea6e0;fillColor=#dae8fc;fontColor=#0A1200;" parent="1" source="60" target="9" edge="1">
                    <mxGeometry relative="1" as="geometry"/>
                </mxCell>
                <mxCell id="66" value="" style="edgeStyle=orthogonalEdgeStyle;curved=1;orthogonalLoop=1;jettySize=auto;html=1;startArrow=classic;startFill=1;endArrow=none;endFill=0;strokeWidth=3;strokeColor=#6c8ebf;gradientColor=#7ea6e0;fillColor=#dae8fc;fontColor=#0A1200;" parent="1" source="60" target="18" edge="1">
                    <mxGeometry relative="1" as="geometry"/>
                </mxCell>
                <mxCell id="67" value="" style="edgeStyle=orthogonalEdgeStyle;curved=1;orthogonalLoop=1;jettySize=auto;html=1;startArrow=classic;startFill=1;endArrow=none;endFill=0;strokeWidth=1;strokeColor=#6c8ebf;gradientColor=#7ea6e0;fillColor=#dae8fc;fontColor=#0A1200;" parent="1" source="60" target="2" edge="1">
                    <mxGeometry relative="1" as="geometry"/>
                </mxCell>
                <mxCell id="60" value="has a" style="rhombus;whiteSpace=wrap;html=1;strokeColor=#6c8ebf;gradientColor=#7ea6e0;fillColor=#dae8fc;fontColor=#0A1200;" parent="1" vertex="1">
                    <mxGeometry x="500" y="60" width="80" height="60" as="geometry"/>
                </mxCell>
                <mxCell id="68" value="Associate" style="whiteSpace=wrap;html=1;strokeColor=#6c8ebf;gradientColor=#7ea6e0;fillColor=#dae8fc;fontColor=#0A1200;" parent="1" vertex="1">
                    <mxGeometry x="50" y="-170" width="120" height="60" as="geometry"/>
                </mxCell>
                <mxCell id="77" value="" style="edgeStyle=orthogonalEdgeStyle;curved=1;orthogonalLoop=1;jettySize=auto;html=1;startArrow=none;startFill=0;endArrow=none;endFill=0;strokeWidth=3;strokeColor=#6c8ebf;gradientColor=#7ea6e0;fillColor=#dae8fc;fontColor=#0A1200;" parent="1" source="71" target="68" edge="1">
                    <mxGeometry relative="1" as="geometry"/>
                </mxCell>
                <mxCell id="71" value="&lt;u&gt;&lt;b&gt;id&lt;/b&gt;&lt;/u&gt;" style="ellipse;whiteSpace=wrap;html=1;strokeColor=#6c8ebf;gradientColor=#7ea6e0;fillColor=#dae8fc;fontColor=#0A1200;" parent="1" vertex="1">
                    <mxGeometry x="-90" y="-210" width="90" height="40" as="geometry"/>
                </mxCell>
                <mxCell id="73" value="" style="edgeStyle=orthogonalEdgeStyle;curved=1;orthogonalLoop=1;jettySize=auto;html=1;startArrow=none;startFill=0;endArrow=none;endFill=0;strokeWidth=3;strokeColor=#6c8ebf;gradientColor=#7ea6e0;fillColor=#dae8fc;fontColor=#0A1200;" parent="1" source="72" target="18" edge="1">
                    <mxGeometry relative="1" as="geometry"/>
                </mxCell>
                <mxCell id="72" value="&lt;u&gt;&lt;b&gt;id&lt;/b&gt;&lt;/u&gt;" style="ellipse;whiteSpace=wrap;html=1;strokeColor=#6c8ebf;gradientColor=#7ea6e0;fillColor=#dae8fc;fontColor=#0A1200;" parent="1" vertex="1">
                    <mxGeometry x="900" y="160" width="90" height="40" as="geometry"/>
                </mxCell>
                <mxCell id="75" value="" style="edgeStyle=orthogonalEdgeStyle;curved=1;orthogonalLoop=1;jettySize=auto;html=1;startArrow=none;startFill=0;endArrow=none;endFill=0;strokeWidth=3;strokeColor=#6c8ebf;gradientColor=#7ea6e0;fillColor=#dae8fc;fontColor=#0A1200;" parent="1" source="74" target="68" edge="1">
                    <mxGeometry relative="1" as="geometry"/>
                </mxCell>
                <mxCell id="76" value="" style="edgeStyle=orthogonalEdgeStyle;curved=1;orthogonalLoop=1;jettySize=auto;html=1;startArrow=none;startFill=0;endArrow=none;endFill=0;strokeWidth=1;strokeColor=#6c8ebf;gradientColor=#7ea6e0;fillColor=#dae8fc;fontColor=#0A1200;" parent="1" source="74" target="2" edge="1">
                    <mxGeometry relative="1" as="geometry"/>
                </mxCell>
                <mxCell id="74" value="has a" style="rhombus;whiteSpace=wrap;html=1;strokeColor=#6c8ebf;gradientColor=#7ea6e0;fillColor=#dae8fc;fontColor=#0A1200;" parent="1" vertex="1">
                    <mxGeometry x="75" y="-50" width="70" height="50" as="geometry"/>
                </mxCell>
                <mxCell id="79" value="" style="edgeStyle=orthogonalEdgeStyle;curved=1;orthogonalLoop=1;jettySize=auto;html=1;startArrow=none;startFill=0;endArrow=none;endFill=0;strokeWidth=3;strokeColor=#6c8ebf;gradientColor=#7ea6e0;fillColor=#dae8fc;fontColor=#0A1200;" parent="1" source="78" target="68" edge="1">
                    <mxGeometry relative="1" as="geometry"/>
                </mxCell>
                <mxCell id="78" value="user_id" style="ellipse;whiteSpace=wrap;html=1;strokeColor=#6c8ebf;gradientColor=#7ea6e0;fillColor=#dae8fc;fontColor=#0A1200;" parent="1" vertex="1">
                    <mxGeometry x="-90" y="-160" width="90" height="40" as="geometry"/>
                </mxCell>
                <mxCell id="81" value="" style="edgeStyle=orthogonalEdgeStyle;curved=1;orthogonalLoop=1;jettySize=auto;html=1;startArrow=none;startFill=0;endArrow=none;endFill=0;strokeWidth=3;strokeColor=#6c8ebf;gradientColor=#7ea6e0;fillColor=#dae8fc;fontColor=#0A1200;" parent="1" source="80" target="68" edge="1">
                    <mxGeometry relative="1" as="geometry"/>
                </mxCell>
                <mxCell id="80" value="created" style="ellipse;whiteSpace=wrap;html=1;strokeColor=#6c8ebf;gradientColor=#7ea6e0;fillColor=#dae8fc;fontColor=#0A1200;" parent="1" vertex="1">
                    <mxGeometry x="-90" y="-110" width="90" height="40" as="geometry"/>
                </mxCell>
                <mxCell id="83" value="" style="edgeStyle=orthogonalEdgeStyle;curved=1;orthogonalLoop=1;jettySize=auto;html=1;startArrow=none;startFill=0;endArrow=none;endFill=0;strokeWidth=3;strokeColor=#6c8ebf;gradientColor=#7ea6e0;fillColor=#dae8fc;fontColor=#0A1200;" parent="1" source="82" target="2" edge="1">
                    <mxGeometry relative="1" as="geometry"/>
                </mxCell>
                <mxCell id="82" value="created" style="ellipse;whiteSpace=wrap;html=1;strokeColor=#6c8ebf;gradientColor=#7ea6e0;fillColor=#dae8fc;fontColor=#0A1200;" parent="1" vertex="1">
                    <mxGeometry x="-220" y="100" width="90" height="40" as="geometry"/>
                </mxCell>
                <mxCell id="86" value="" style="edgeStyle=orthogonalEdgeStyle;curved=1;orthogonalLoop=1;jettySize=auto;html=1;startArrow=none;startFill=0;endArrow=none;endFill=0;strokeWidth=3;strokeColor=#6c8ebf;gradientColor=#7ea6e0;fillColor=#dae8fc;fontColor=#0A1200;" parent="1" source="84" target="18" edge="1">
                    <mxGeometry relative="1" as="geometry"/>
                </mxCell>
                <mxCell id="84" value="created" style="ellipse;whiteSpace=wrap;html=1;strokeColor=#6c8ebf;gradientColor=#7ea6e0;fillColor=#dae8fc;fontColor=#0A1200;" parent="1" vertex="1">
                    <mxGeometry x="810" y="290" width="90" height="40" as="geometry"/>
                </mxCell>
                <mxCell id="88" value="" style="edgeStyle=orthogonalEdgeStyle;curved=1;orthogonalLoop=1;jettySize=auto;html=1;startArrow=none;startFill=0;endArrow=none;endFill=0;strokeWidth=3;strokeColor=#6c8ebf;gradientColor=#7ea6e0;fillColor=#dae8fc;fontColor=#0A1200;" parent="1" source="87" target="9" edge="1">
                    <mxGeometry relative="1" as="geometry"/>
                </mxCell>
                <mxCell id="87" value="created" style="ellipse;whiteSpace=wrap;html=1;strokeColor=#6c8ebf;gradientColor=#7ea6e0;fillColor=#dae8fc;fontColor=#0A1200;" parent="1" vertex="1">
                    <mxGeometry x="820" y="60" width="90" height="40" as="geometry"/>
                </mxCell>
                <mxCell id="90" value="" style="edgeStyle=orthogonalEdgeStyle;curved=1;orthogonalLoop=1;jettySize=auto;html=1;startArrow=none;startFill=0;endArrow=none;endFill=0;strokeWidth=3;strokeColor=#6c8ebf;gradientColor=#7ea6e0;fillColor=#dae8fc;fontColor=#0A1200;" parent="1" source="89" target="36" edge="1">
                    <mxGeometry relative="1" as="geometry"/>
                </mxCell>
                <mxCell id="89" value="created" style="ellipse;whiteSpace=wrap;html=1;strokeColor=#6c8ebf;gradientColor=#7ea6e0;fillColor=#dae8fc;fontColor=#0A1200;" parent="1" vertex="1">
                    <mxGeometry x="910" y="-280" width="90" height="40" as="geometry"/>
                </mxCell>
                <mxCell id="92" value="" style="edgeStyle=orthogonalEdgeStyle;curved=1;orthogonalLoop=1;jettySize=auto;html=1;startArrow=none;startFill=0;endArrow=none;endFill=0;strokeWidth=3;strokeColor=#6c8ebf;gradientColor=#7ea6e0;fillColor=#dae8fc;fontColor=#0A1200;" parent="1" source="91" target="18" edge="1">
                    <mxGeometry relative="1" as="geometry"/>
                </mxCell>
                <mxCell id="91" value="pay_rate" style="ellipse;whiteSpace=wrap;html=1;strokeColor=#6c8ebf;gradientColor=#7ea6e0;fillColor=#dae8fc;fontColor=#0A1200;" parent="1" vertex="1">
                    <mxGeometry x="910" y="270" width="90" height="40" as="geometry"/>
                </mxCell>
                <mxCell id="94" value="" style="edgeStyle=orthogonalEdgeStyle;curved=1;orthogonalLoop=1;jettySize=auto;html=1;startArrow=none;startFill=0;endArrow=none;endFill=0;strokeWidth=3;strokeColor=#6c8ebf;gradientColor=#7ea6e0;fillColor=#dae8fc;fontColor=#0A1200;" parent="1" source="93" target="9" edge="1">
                    <mxGeometry relative="1" as="geometry"/>
                </mxCell>
                <mxCell id="93" value="charge_rate" style="ellipse;whiteSpace=wrap;html=1;strokeColor=#6c8ebf;gradientColor=#7ea6e0;fillColor=#dae8fc;fontColor=#0A1200;" parent="1" vertex="1">
                    <mxGeometry x="920" y="40" width="90" height="40" as="geometry"/>
                </mxCell>
                <mxCell id="98" value="" style="edgeStyle=orthogonalEdgeStyle;curved=1;orthogonalLoop=1;jettySize=auto;html=1;startArrow=none;startFill=0;endArrow=none;endFill=0;strokeWidth=1;strokeColor=#6c8ebf;gradientColor=#7ea6e0;fillColor=#dae8fc;fontColor=#0A1200;" parent="1" source="95" target="9" edge="1">
                    <mxGeometry relative="1" as="geometry"/>
                </mxCell>
                <mxCell id="95" value="jobs_completed" style="ellipse;whiteSpace=wrap;html=1;strokeColor=#6c8ebf;gradientColor=#7ea6e0;fillColor=#dae8fc;fontColor=#0A1200;" parent="1" vertex="1">
                    <mxGeometry x="1020" y="-190" width="120" height="50" as="geometry"/>
                </mxCell>
                <mxCell id="97" value="" style="edgeStyle=orthogonalEdgeStyle;curved=1;orthogonalLoop=1;jettySize=auto;html=1;startArrow=none;startFill=0;endArrow=none;endFill=0;strokeWidth=1;strokeColor=#6c8ebf;gradientColor=#7ea6e0;fillColor=#dae8fc;fontColor=#0A1200;" parent="1" source="96" target="9" edge="1">
                    <mxGeometry relative="1" as="geometry"/>
                </mxCell>
                <mxCell id="96" value="jobs_not_completed" style="ellipse;whiteSpace=wrap;html=1;strokeColor=#6c8ebf;gradientColor=#7ea6e0;fillColor=#dae8fc;fontColor=#0A1200;" parent="1" vertex="1">
                    <mxGeometry x="1020" y="-130" width="120" height="50" as="geometry"/>
                </mxCell>
                <mxCell id="99" value="Message" style="whiteSpace=wrap;html=1;strokeColor=#6c8ebf;gradientColor=#7ea6e0;fillColor=#dae8fc;fontColor=#0A1200;" parent="1" vertex="1">
                    <mxGeometry x="50" y="270" width="120" height="60" as="geometry"/>
                </mxCell>
                <mxCell id="107" value="" style="edgeStyle=orthogonalEdgeStyle;curved=1;orthogonalLoop=1;jettySize=auto;html=1;startArrow=none;startFill=0;endArrow=none;endFill=0;strokeWidth=3;strokeColor=#6c8ebf;gradientColor=#7ea6e0;fillColor=#dae8fc;fontColor=#0A1200;" parent="1" source="100" target="99" edge="1">
                    <mxGeometry relative="1" as="geometry"/>
                </mxCell>
                <mxCell id="100" value="&lt;u&gt;&lt;b&gt;id&lt;/b&gt;&lt;/u&gt;" style="ellipse;whiteSpace=wrap;html=1;strokeColor=#6c8ebf;gradientColor=#7ea6e0;fillColor=#dae8fc;fontColor=#0A1200;" parent="1" vertex="1">
                    <mxGeometry x="-30" y="350" width="120" height="50" as="geometry"/>
                </mxCell>
                <mxCell id="106" value="" style="edgeStyle=orthogonalEdgeStyle;curved=1;orthogonalLoop=1;jettySize=auto;html=1;startArrow=none;startFill=0;endArrow=none;endFill=0;strokeWidth=3;strokeColor=#6c8ebf;gradientColor=#7ea6e0;fillColor=#dae8fc;fontColor=#0A1200;" parent="1" source="101" target="99" edge="1">
                    <mxGeometry relative="1" as="geometry"/>
                </mxCell>
                <mxCell id="101" value="message_text" style="ellipse;whiteSpace=wrap;html=1;strokeColor=#6c8ebf;gradientColor=#7ea6e0;fillColor=#dae8fc;fontColor=#0A1200;" parent="1" vertex="1">
                    <mxGeometry x="40" y="450" width="120" height="50" as="geometry"/>
                </mxCell>
                <mxCell id="108" value="" style="edgeStyle=orthogonalEdgeStyle;curved=1;orthogonalLoop=1;jettySize=auto;html=1;startArrow=none;startFill=0;endArrow=none;endFill=0;strokeWidth=3;strokeColor=#6c8ebf;gradientColor=#7ea6e0;fillColor=#dae8fc;fontColor=#0A1200;" parent="1" source="102" target="99" edge="1">
                    <mxGeometry relative="1" as="geometry"/>
                </mxCell>
                <mxCell id="102" value="created" style="ellipse;whiteSpace=wrap;html=1;strokeColor=#6c8ebf;gradientColor=#7ea6e0;fillColor=#dae8fc;fontColor=#0A1200;" parent="1" vertex="1">
                    <mxGeometry x="170" y="440" width="120" height="50" as="geometry"/>
                </mxCell>
                <mxCell id="104" value="" style="edgeStyle=orthogonalEdgeStyle;curved=1;orthogonalLoop=1;jettySize=auto;html=1;startArrow=none;startFill=0;endArrow=none;endFill=0;strokeWidth=3;strokeColor=#6c8ebf;gradientColor=#7ea6e0;fillColor=#dae8fc;fontColor=#0A1200;" parent="1" source="103" target="99" edge="1">
                    <mxGeometry relative="1" as="geometry"/>
                </mxCell>
                <mxCell id="103" value="user_id" style="ellipse;whiteSpace=wrap;html=1;strokeColor=#6c8ebf;gradientColor=#7ea6e0;fillColor=#dae8fc;fontColor=#0A1200;" parent="1" vertex="1">
                    <mxGeometry y="400" width="120" height="50" as="geometry"/>
                </mxCell>
                <mxCell id="111" value="" style="edgeStyle=orthogonalEdgeStyle;curved=1;orthogonalLoop=1;jettySize=auto;html=1;startArrow=none;startFill=0;endArrow=none;endFill=0;strokeWidth=1;strokeColor=#6c8ebf;gradientColor=#7ea6e0;fillColor=#dae8fc;fontColor=#0A1200;" parent="1" source="110" target="2" edge="1">
                    <mxGeometry relative="1" as="geometry"/>
                </mxCell>
                <mxCell id="112" value="" style="edgeStyle=orthogonalEdgeStyle;curved=1;orthogonalLoop=1;jettySize=auto;html=1;startArrow=classic;startFill=1;endArrow=none;endFill=0;strokeWidth=3;strokeColor=#6c8ebf;gradientColor=#7ea6e0;fillColor=#dae8fc;fontColor=#0A1200;" parent="1" source="110" target="99" edge="1">
                    <mxGeometry relative="1" as="geometry"/>
                </mxCell>
                <mxCell id="110" value="has a" style="rhombus;whiteSpace=wrap;html=1;strokeColor=#6c8ebf;gradientColor=#7ea6e0;fillColor=#dae8fc;fontColor=#0A1200;" parent="1" vertex="1">
                    <mxGeometry x="66.25" y="160" width="87.5" height="60" as="geometry"/>
                </mxCell>
                <mxCell id="116" value="Bank Account" style="whiteSpace=wrap;html=1;strokeColor=#6c8ebf;gradientColor=#7ea6e0;fillColor=#dae8fc;fontColor=#0A1200;" parent="1" vertex="1">
                    <mxGeometry x="280" y="-165" width="120" height="60" as="geometry"/>
                </mxCell>
                <mxCell id="124" value="" style="edgeStyle=orthogonalEdgeStyle;curved=1;orthogonalLoop=1;jettySize=auto;html=1;startArrow=none;startFill=0;endArrow=none;endFill=0;strokeWidth=3;strokeColor=#6c8ebf;gradientColor=#7ea6e0;fillColor=#dae8fc;fontColor=#0A1200;" parent="1" source="118" target="116" edge="1">
                    <mxGeometry relative="1" as="geometry"/>
                </mxCell>
                <mxCell id="118" value="&lt;u&gt;&lt;b&gt;id&lt;/b&gt;&lt;/u&gt;" style="ellipse;whiteSpace=wrap;html=1;strokeColor=#6c8ebf;gradientColor=#7ea6e0;fillColor=#dae8fc;fontColor=#0A1200;" parent="1" vertex="1">
                    <mxGeometry x="160" y="-280" width="120" height="50" as="geometry"/>
                </mxCell>
                <mxCell id="125" value="" style="edgeStyle=orthogonalEdgeStyle;curved=1;orthogonalLoop=1;jettySize=auto;html=1;startArrow=none;startFill=0;endArrow=none;endFill=0;strokeWidth=3;strokeColor=#6c8ebf;gradientColor=#7ea6e0;fillColor=#dae8fc;fontColor=#0A1200;" parent="1" source="119" target="116" edge="1">
                    <mxGeometry relative="1" as="geometry"/>
                </mxCell>
                <mxCell id="119" value="routing_num" style="ellipse;whiteSpace=wrap;html=1;strokeColor=#6c8ebf;gradientColor=#7ea6e0;fillColor=#dae8fc;fontColor=#0A1200;" parent="1" vertex="1">
                    <mxGeometry x="220" y="-350" width="120" height="50" as="geometry"/>
                </mxCell>
                <mxCell id="123" value="" style="edgeStyle=orthogonalEdgeStyle;curved=1;orthogonalLoop=1;jettySize=auto;html=1;startArrow=none;startFill=0;endArrow=none;endFill=0;strokeWidth=3;strokeColor=#6c8ebf;gradientColor=#7ea6e0;fillColor=#dae8fc;fontColor=#0A1200;" parent="1" source="120" target="116" edge="1">
                    <mxGeometry relative="1" as="geometry"/>
                </mxCell>
                <mxCell id="120" value="acct_num" style="ellipse;whiteSpace=wrap;html=1;strokeWidth=1;strokeColor=#6c8ebf;gradientColor=#7ea6e0;fillColor=#dae8fc;fontColor=#0A1200;" parent="1" vertex="1">
                    <mxGeometry x="300" y="-300" width="120" height="50" as="geometry"/>
                </mxCell>
                <mxCell id="122" value="" style="edgeStyle=orthogonalEdgeStyle;curved=1;orthogonalLoop=1;jettySize=auto;html=1;startArrow=none;startFill=0;endArrow=none;endFill=0;strokeWidth=3;strokeColor=#6c8ebf;gradientColor=#7ea6e0;fillColor=#dae8fc;fontColor=#0A1200;" parent="1" source="121" target="116" edge="1">
                    <mxGeometry relative="1" as="geometry">
                        <Array as="points">
                            <mxPoint x="340" y="-215"/>
                        </Array>
                    </mxGeometry>
                </mxCell>
                <mxCell id="121" value="created" style="ellipse;whiteSpace=wrap;html=1;strokeColor=#6c8ebf;gradientColor=#7ea6e0;fillColor=#dae8fc;fontColor=#0A1200;" parent="1" vertex="1">
                    <mxGeometry x="410" y="-240" width="120" height="50" as="geometry"/>
                </mxCell>
                <mxCell id="127" value="" style="edgeStyle=orthogonalEdgeStyle;curved=1;orthogonalLoop=1;jettySize=auto;html=1;startArrow=none;startFill=0;endArrow=none;endFill=0;strokeWidth=1;strokeColor=#6c8ebf;gradientColor=#7ea6e0;fillColor=#dae8fc;fontColor=#0A1200;" parent="1" source="126" target="2" edge="1">
                    <mxGeometry relative="1" as="geometry">
                        <Array as="points">
                            <mxPoint x="255" y="40"/>
                            <mxPoint x="110" y="40"/>
                        </Array>
                    </mxGeometry>
                </mxCell>
                <mxCell id="128" value="" style="edgeStyle=orthogonalEdgeStyle;curved=1;orthogonalLoop=1;jettySize=auto;html=1;startArrow=none;startFill=0;endArrow=none;endFill=0;strokeWidth=3;strokeColor=#6c8ebf;gradientColor=#7ea6e0;fillColor=#dae8fc;fontColor=#0A1200;" parent="1" source="126" target="116" edge="1">
                    <mxGeometry relative="1" as="geometry">
                        <Array as="points">
                            <mxPoint x="240" y="-135"/>
                        </Array>
                    </mxGeometry>
                </mxCell>
                <mxCell id="126" value="has a" style="rhombus;whiteSpace=wrap;html=1;strokeWidth=1;strokeColor=#6c8ebf;gradientColor=#7ea6e0;fillColor=#dae8fc;fontColor=#0A1200;" parent="1" vertex="1">
                    <mxGeometry x="210" y="-60" width="80" height="60" as="geometry"/>
                </mxCell>
                <mxCell id="141" value="" style="edgeStyle=orthogonalEdgeStyle;curved=1;orthogonalLoop=1;jettySize=auto;html=1;startArrow=none;startFill=0;endArrow=none;endFill=0;strokeWidth=3;strokeColor=#6c8ebf;gradientColor=#7ea6e0;fillColor=#dae8fc;fontColor=#0A1200;" parent="1" source="140" target="2" edge="1">
                    <mxGeometry relative="1" as="geometry"/>
                </mxCell>
                <mxCell id="140" value="age" style="ellipse;whiteSpace=wrap;html=1;strokeColor=#6c8ebf;gradientColor=#7ea6e0;fillColor=#dae8fc;fontColor=#0A1200;" parent="1" vertex="1">
                    <mxGeometry x="-220" y="30" width="90" height="40" as="geometry"/>
                </mxCell>
                <mxCell id="143" value="" style="edgeStyle=orthogonalEdgeStyle;orthogonalLoop=1;jettySize=auto;html=1;curved=1;strokeWidth=3;fillColor=#cce5ff;strokeColor=#6C8EBF;" edge="1" parent="1" source="142">
                    <mxGeometry relative="1" as="geometry">
                        <mxPoint x="340" y="-170" as="targetPoint"/>
                        <Array as="points">
                            <mxPoint x="420" y="-315"/>
                            <mxPoint x="420" y="-190"/>
                            <mxPoint x="340" y="-190"/>
                        </Array>
                    </mxGeometry>
                </mxCell>
                <mxCell id="142" value="name" style="ellipse;whiteSpace=wrap;html=1;strokeColor=#6c8ebf;gradientColor=#7ea6e0;fillColor=#dae8fc;fontColor=#0A1200;" vertex="1" parent="1">
                    <mxGeometry x="430" y="-340" width="120" height="50" as="geometry"/>
                </mxCell>
            </root>
        </mxGraphModel>
    </diagram>
</mxfile>